<svg width="45" height="46" viewBox="0 0 45 46" fill="none" xmlns="http://www.w3.org/2000/svg">
<path d="M32.0856 13.0749L26.2299 5.93583L24.6257 3.28877L25.9091 0L18.1284 6.57754L23.984 13.6364L25.5882 16.2834L24.3048 19.5722L32.0856 13.0749Z" fill="white"/>
<path d="M20.7754 9.86628L11.631 10.0267L8.58288 9.62564L6.89841 6.57751L7.13904 16.7647L16.2834 16.6043L19.3316 17.0053L21.016 20.0534L20.7754 9.86628Z" fill="white"/>
<path d="M11.2299 16.7647L5.69519 24.0641L3.52941 26.3101L0 25.7486L8.10161 31.8449L13.6364 24.5454L15.8021 22.3797L19.3316 22.9411L11.2299 16.7647Z" fill="white"/>
<path d="M10.6684 28.5561L12.8342 37.4599L13.2353 40.508L10.5882 42.9144L20.3743 40.3476L18.1284 31.4438L17.7273 28.3957L20.3743 26.0695L10.6684 28.5561Z" fill="white"/>
<path d="M19.492 36.3369L27.754 40.1871L30.4011 41.8716L30.6417 45.401L34.7326 36.0962L26.3904 32.246L23.7433 30.6417L23.5027 27.1123L19.492 36.3369Z" fill="white"/>
<path d="M31.0428 34.2513L39.2246 30.1604L42.1123 29.1176L45 31.123L40.3476 22.139L32.1658 26.2299L29.1979 27.2727L26.3102 25.2674L31.0428 34.2513Z" fill="white"/>
<path d="M36.6577 23.9037L38.5027 14.9198L39.5454 11.9519L42.9144 10.9893L32.9679 8.98395L31.123 17.9679L30.0802 20.9358L26.7112 21.8984L36.6577 23.9037Z" fill="white"/>
</svg>
