<svg viewBox="0 0 100 100" fill="none" xmlns="http://www.w3.org/2000/svg">
    <path
        d="M37.2044 8.15872C36.0809 9.456 35.0823 11.4019 35.0823 12.5695C35.0823 13.8668 32.3361 15.5532 27.7174 17.3694C20.6022 20.0937 19.9781 20.6126 12.1139 32.807L4 45.3906L7.99451 48.8933C10.2414 50.8392 13.487 53.304 15.2346 54.3418C18.3553 56.2878 18.7298 56.158 21.7257 53.0446L24.9712 49.8014V70.2984C24.9712 81.5847 24.9712 91.5737 25.096 92.3521C25.096 93.6494 30.8381 94.0386 49.4376 94.0386H73.7791V72.374V50.8392L76.775 53.6932L79.7709 56.5472L87.3855 51.6176C91.6296 48.8933 95 46.2987 95 45.7798C95 45.2609 91.5048 39.1637 87.2606 32.4178C80.7695 22.2991 78.6475 19.8342 75.0274 18.6667C68.037 16.3316 62.7942 12.4397 62.2949 9.32627C61.9204 6.60199 61.1715 6.47226 50.561 6.08308C40.8244 5.82362 38.952 6.08308 37.2044 8.15872ZM65.2908 22.4288C69.1605 25.8017 73.7791 30.9908 75.6516 33.9746C77.6488 37.088 79.8957 40.2015 80.7695 40.9799C83.1413 43.0555 82.8916 44.3528 79.8957 46.0393C77.7737 47.3365 77.0247 46.9474 74.9026 44.2231C73.5295 42.4069 71.7819 40.8501 71.1578 40.8501C70.5336 40.8501 70.0343 51.2284 70.0343 65.4984V90.1467L49.9369 89.8873L29.8395 89.4981L29.9643 65.1093C29.9643 51.7473 29.5898 40.8501 28.9657 40.8501C28.4664 40.8501 26.7188 42.2772 25.096 44.0933C21.8505 47.7257 19.1043 48.2446 18.1056 45.6501C17.3567 43.315 25.2209 31.1206 31.2126 25.5423C39.2016 17.7586 42.572 16.2019 50.6859 16.2019C57.8011 16.2019 58.5501 16.591 65.2908 22.4288ZM25.4705 25.5423C23.4733 27.8774 19.8532 32.6773 17.6063 36.1799C15.2346 39.8123 13.2373 42.0177 12.8628 41.1096C12.2387 39.034 20.6022 26.0612 24.2222 23.3369C28.8409 19.964 29.465 21.1315 25.4705 25.5423ZM81.893 31.7692C85.0137 36.5691 87.5103 40.8501 87.5103 41.3691C87.5103 43.7042 85.1385 41.4988 81.7682 36.0502C79.7709 32.6773 76.6502 28.0071 74.6529 25.8017C71.6571 22.1693 71.5322 21.6504 73.7791 22.2991C75.1523 22.6882 78.7723 26.9693 81.893 31.7692Z"
        fill="white" />
    <path
        d="M43.821 33.8447C42.0734 35.0123 39.5768 37.7365 38.4534 39.8122C36.4561 43.5743 36.4561 44.0932 38.3285 48.6337C39.5768 51.358 41.8237 54.3417 43.4465 55.2498C46.9417 57.1957 47.0665 59.0119 43.821 63.2929C40.7003 67.4442 40.7003 69.001 43.6962 70.6874C46.6921 72.2442 48.8141 72.3739 48.8141 70.8172C48.8141 70.1685 51.5604 65.3686 55.0556 60.0497C60.2984 52.0066 61.297 49.6715 61.297 44.4824C61.297 39.423 60.7977 37.996 57.4273 35.142C53.0583 31.3799 48.4397 30.861 43.821 33.8447ZM53.5576 44.2229C54.0569 47.4661 51.0611 50.3202 48.3148 49.1526C47.0665 48.6337 46.3176 46.8175 46.3176 44.4824C46.3176 41.1095 46.6921 40.7203 49.8128 41.1095C52.0597 41.3689 53.308 42.277 53.5576 44.2229Z"
        fill="white" />
</svg>