<svg viewBox="0 0 100 100" fill="none" xmlns="http://www.w3.org/2000/svg">
<path d="M9.91621 10.3625C7.16403 12.1035 6.08709 18.3213 7.88199 21.8033C9.79655 25.6583 11.2325 26.5288 15.5402 26.5288C19.848 26.5288 21.2839 25.6583 23.1984 21.8033C25.113 18.1969 23.7967 11.9791 20.9249 10.3625C18.0531 8.74587 12.5487 8.87023 9.91621 10.3625ZM19.7283 15.3367C20.6856 17.0777 20.6856 18.57 19.7283 20.311C17.4548 24.6635 10.1555 22.7981 10.1555 17.8239C10.1555 12.8496 17.4548 10.9843 19.7283 15.3367Z" fill="white"/>
<path d="M37.9157 10.6108C34.0866 14.5902 37.9157 24.0413 43.4201 24.0413C46.2919 24.0413 50.839 18.9427 50.839 15.7094C50.839 10.3621 41.6252 6.75575 37.9157 10.6108Z" fill="white"/>
<path d="M58.0204 18.9426C53.9519 20.3105 47.251 23.9168 43.7808 26.6526C40.1911 29.6372 29.7807 29.8859 26.7892 27.0257C25.1139 25.4091 24.396 25.4091 22.2421 26.777C19.1309 28.7667 19.1309 29.1398 22.1224 33.1192C24.396 35.9794 25.5926 36.3524 33.6098 36.7255L42.7039 37.0986L53.8323 57.6173C60.0546 68.9338 66.0376 80.3745 67.3538 83.1104C70.7043 90.323 73.9351 93.0589 77.0462 91.1935C80.8754 89.0795 80.995 89.3282 70.7043 68.9338C69.5077 66.4466 67.4735 63.089 66.2769 61.4724C64.9606 59.8557 64.0033 58.1148 64.0033 57.493C64.0033 56.3738 68.7897 54.5084 70.465 54.8815C70.9436 55.1302 72.1402 54.6328 72.9778 53.8866C75.4907 51.6482 77.6445 53.6379 81.8326 61.9698C86.26 70.426 89.4909 72.2914 92.7217 68.0633C94.0379 66.4466 93.6789 64.83 90.2088 57.866C83.9865 45.3061 81.9523 43.4407 75.1317 43.8138L69.2684 44.0625L64.841 35.7306C61.4905 29.3885 60.7725 27.1501 61.8495 26.2796C65.0803 24.2899 67.4735 25.4091 72.6188 31.6269C76.4479 36.2281 78.3625 37.596 79.9181 37.0986C82.5506 35.9794 82.5506 32.6217 79.9181 29.2641C78.7215 27.8962 76.2086 24.6629 74.4137 22.3002C71.5419 18.3208 70.465 17.8234 66.0376 17.9477C63.2854 17.9477 59.6956 18.4451 58.0204 18.9426Z" fill="white"/>
<path d="M28.7039 38.9642C28.3449 39.4616 30.1398 43.8141 32.7723 48.5396C35.2852 53.1408 37.6783 58.2394 38.157 59.6073C38.6356 61.0996 39.9519 63.2136 41.1485 64.3328C45.2169 68.1879 44.9776 64.2085 40.7895 56.1253C38.516 51.7729 35.7638 46.1768 34.6869 43.6897C32.6526 39.0885 29.9005 36.8501 28.7039 38.9642Z" fill="white"/>
<path d="M36.4824 39.8346C36.4824 40.2077 41.0295 49.1613 46.6535 59.6072C52.2775 70.0532 56.8246 79.1312 56.8246 79.753C56.8246 81.6183 60.175 83.9811 61.4913 83.2349C62.4486 82.4888 58.7391 73.4108 54.4314 66.3225C53.8331 65.3276 50.3629 58.7368 46.6535 51.6484C42.944 44.6845 39.1149 38.9641 38.1577 38.9641C37.2004 38.9641 36.4824 39.3372 36.4824 39.8346Z" fill="white"/>
</svg>
