<svg viewBox="0 0 100 100" fill="none" xmlns="http://www.w3.org/2000/svg">
<path d="M56.796 6.10237C54.7658 7.50899 53.8184 9.61892 53.8184 12.8541C53.8184 18.3399 55.8486 20.7312 60.8565 20.7312C68.5715 20.7312 70.6017 9.33759 63.4282 5.39906C60.0444 3.4298 60.4505 3.4298 56.796 6.10237Z" fill="white"/>
<path d="M60.9925 21.2478C58.1502 22.2325 54.4958 25.6084 50.9767 30.2502C47.7283 34.7514 43.2617 38.6899 40.1487 40.0965C34.3287 42.9098 32.5691 45.8637 35.2761 48.6769C36.765 50.2242 38.1185 50.0835 43.8031 47.5516C47.4576 45.8637 51.7888 42.9098 53.413 40.7998L56.3906 37.1426V46.2856C56.526 54.3034 55.9846 55.9913 52.7362 59.9298C50.706 62.3211 47.4576 66.4003 45.4273 69.0729C43.5324 71.6048 39.0659 77.2313 35.6822 81.5918C28.7793 90.4535 28.1026 93.2667 32.4338 95.658C35.1408 97.2052 35.9529 96.7832 40.2841 91.1568C42.8557 87.7809 50.5706 78.4972 57.2027 70.6201C75.2042 49.0989 75.4749 48.6769 75.4749 39.1119C75.4749 34.47 76.0163 30.8128 76.6931 30.8128C80.6182 30.8128 82.2424 32.7821 82.2424 37.8459C82.2424 45.0197 83.3252 47.6923 86.4383 47.6923C89.6866 47.6923 91.7169 42.4878 91.7169 34.0481C91.7169 28.9842 91.1755 27.5776 89.0099 27.015C87.521 26.593 86.3029 25.749 86.3029 25.1864C86.3029 23.3578 74.9335 19.5599 70.061 19.7006C67.4893 19.8412 63.2935 20.5445 60.9925 21.2478Z" fill="white"/>
<path d="M63.833 67.2901C61.5321 69.9627 61.5321 70.244 67.3521 76.2925C73.8489 83.1849 77.5033 84.3102 78.8568 79.6684C79.5336 77.4178 78.5861 75.4485 75.2024 71.7913C68.7056 64.6176 66.8107 63.9142 63.833 67.2901Z" fill="white"/>
<path d="M9.96136 79.9041C8.33717 81.7327 7.79577 84.4053 8.06647 87.9218C8.33717 92.2823 9.28462 93.8296 12.2623 95.2362C17.4056 97.9088 22.2782 96.3615 25.2559 91.157C27.4215 87.3592 27.5568 86.3745 26.068 83.28C24.9852 81.3107 23.361 79.0601 22.4135 78.4975C19.1651 76.3876 12.3977 77.0909 9.96136 79.9041ZM21.3307 83.5613C24.7145 87.7812 19.8419 93.689 14.4279 92.001C11.8563 91.157 10.7735 84.4053 12.8037 82.436C14.4279 80.7481 19.5712 81.4514 21.3307 83.5613Z" fill="white"/>
</svg>
