<svg viewBox="0 0 100 100" fill="none" xmlns="http://www.w3.org/2000/svg">
<path d="M76.0769 25.6954C73.6093 24.8303 69.3532 25.1178 64.5405 26.3176C59.9868 27.5686 54.8812 27.7956 52.0101 27.0658C46.548 25.8231 43.8166 26.843 44.2405 30.1557C44.4737 31.9777 45.4802 32.6075 50.7043 33.9645C54.0936 34.7969 58.6001 35.1509 60.8047 34.6187L64.7382 33.783L60.0431 39.8493C56.0192 45.2413 54.7787 46.072 50.514 46.9498C47.8846 47.4517 43.5477 48.4228 40.7738 49.1114C38.1657 49.779 32.1933 51.1259 27.6184 52.2114C18.303 54.4033 16.3912 55.9083 18.1529 59.8087C19.2269 62.2815 20.0042 62.4354 25.8831 61.0162C29.3918 60.1502 39.4845 58.1121 48.1074 56.4289C71.5847 51.7668 71.9883 51.6314 76.9001 45.2851C79.2838 42.2053 81.5355 40.068 82.0026 40.4296C84.712 42.5265 84.8219 44.7008 82.2215 48.0606C78.5377 52.8204 77.9127 55.1721 80.0615 56.8352C82.3037 58.5706 86.3777 56.2021 90.7117 50.6024C93.3121 47.2426 93.6607 46.0201 92.4548 44.4898C91.6438 43.4145 91.2363 42.2037 91.5252 41.8304C92.4643 40.6171 86.5667 32.0233 83.1311 29.5135C81.2837 28.233 78.0263 26.4581 76.0769 25.6954Z" fill="white"/>
<path d="M70.397 56.5104C69.3781 53.2772 69.1482 53.1348 61.2594 54.8282C52.3384 56.6474 49.5687 59.0637 52.6764 62.5197C54.1728 64.2121 56.2616 64.435 60.963 63.5216C70.1139 61.8449 71.6479 60.6526 70.397 56.5104Z" fill="white"/>
<path d="M85.3017 21.8299C84.1552 23.7635 84.1714 25.8685 85.398 28.5452C87.4781 33.084 90.0645 34.2927 94.208 32.3939C100.591 29.4686 97.9508 19.272 90.5222 18.7333C86.9759 18.387 87.3119 18.2331 85.3017 21.8299Z" fill="white"/>
<path d="M1.43495 57.5198C0.246676 58.8576 -0.149415 60.8129 0.0486308 63.3857C0.246677 66.5758 0.939837 67.7078 3.11834 68.7369C6.88121 70.6922 10.446 69.5602 12.6245 65.7526C14.2089 62.974 14.3079 62.2536 13.2187 59.9896C12.4265 58.5489 11.2382 56.9024 10.5451 56.4907C8.16851 54.9471 3.21736 55.4616 1.43495 57.5198ZM9.75287 60.1955C12.2284 63.2827 8.66362 67.6049 4.70271 66.37C2.82127 65.7526 2.02909 60.8129 3.51443 59.3722C4.70271 58.1373 8.46558 58.6518 9.75287 60.1955Z" fill="white"/>
<path d="M3.96973 39.7144L7.93942 46.3305V42.3608L10.5859 45.0073" stroke="white" stroke-width="0.529292" stroke-linecap="round"/>
<path d="M2.64746 49.6614L10.2093 51.8882L7.62294 48.8767L11.5147 49.0228" stroke="white" stroke-width="0.529292" stroke-linecap="round"/>
<path d="M30.7471 70.1421L22.8821 69.6105L26.0607 71.9884L22.2301 72.6909" stroke="white" stroke-width="0.529292" stroke-linecap="round"/>
</svg>
