<svg width="1920" height="1080" viewBox="0 0 1920 1080" fill="none" xmlns="http://www.w3.org/2000/svg">
<g clip-path="url(#clip0_50_1449)">
<rect width="1920" height="1080" fill="#211F21"/>
<path d="M1249.73 -42V90.8875C1249.73 100.924 1257.86 109.06 1267.9 109.06H1396.28C1406.32 109.06 1414.45 117.196 1414.45 127.233V255.577C1414.45 265.614 1422.59 273.75 1432.63 273.75H1561C1571.04 273.75 1579.18 281.886 1579.18 291.922V420.267C1579.18 430.303 1587.32 438.439 1597.36 438.439H1725.73C1735.77 438.439 1743.91 446.576 1743.91 456.612V584.956C1743.91 594.993 1752.04 603.129 1762.08 603.129H1895M1085 -42V90.8875C1085 100.924 1093.14 109.06 1103.18 109.06H1231.55C1241.59 109.06 1249.73 117.196 1249.73 127.233V255.577C1249.73 265.614 1257.86 273.75 1267.9 273.75H1396.28C1406.32 273.75 1414.45 281.886 1414.45 291.922V420.267C1414.45 430.303 1406.32 438.439 1396.28 438.439H1267.9C1257.86 438.439 1249.73 430.303 1249.73 420.267V289.651L1249.57 288.577C1248.35 280.346 1241.36 274.2 1233.04 274.04L1217.92 273.75H1103.18C1093.14 273.75 1085 281.886 1085 291.922V420.267C1085 430.303 1093.14 438.439 1103.18 438.439H1232.69L1237 438.727C1244.16 439.204 1249.73 445.151 1249.73 452.326V466.266M1249.73 452.069V584.956C1249.73 594.993 1257.86 603.129 1267.9 603.129H1396.28C1406.32 603.129 1414.45 611.265 1414.45 621.302V749.646C1414.45 759.682 1422.59 767.819 1432.63 767.819H1561C1571.04 767.819 1579.18 775.955 1579.18 785.991V914.336C1579.18 924.372 1587.32 932.508 1597.36 932.508H1725.73C1735.77 932.508 1743.91 940.644 1743.91 950.681V1079.03C1743.91 1089.06 1752.04 1097.2 1762.08 1097.2H1895" stroke="white" stroke-opacity="0.1"/>
<g filter="url(#filter0_f_50_1449)">
<circle cx="0.5" cy="87.5" r="541.5" fill="url(#paint0_linear_50_1449)" fill-opacity="0.2"/>
</g>
<g filter="url(#filter1_f_50_1449)">
<circle cx="1612.5" cy="1458.5" r="541.5" fill="url(#paint1_linear_50_1449)" fill-opacity="0.2"/>
</g>
<path d="M83.2225 861.226L83.0715 847.287C82.9938 840.112 77.3651 834.226 70.1993 833.826L65.8814 833.586L-63.6201 834.988C-73.6582 835.097 -81.8839 827.05 -81.9926 817.014L-83.3829 688.677C-83.4916 678.641 -75.4422 670.417 -65.4041 670.309L49.3297 669.066L64.4532 669.193C72.7756 669.262 79.8299 675.332 81.1387 683.55L81.3094 684.621L82.7242 815.229C82.833 825.265 91.0586 833.313 101.097 833.204L229.462 831.814C239.5 831.705 247.55 823.481 247.441 813.445L246.051 685.108C245.942 675.072 237.716 667.025 227.678 667.134L99.3128 668.524C89.2746 668.633 81.049 660.585 80.9403 650.549L79.55 522.213C79.4413 512.177 71.2157 504.129 61.1775 504.238L-67.188 505.629C-77.2262 505.737 -85.4518 497.69 -85.5605 487.654L-87 354.774L59.7179 353.185C69.6584 353.077 77.8041 361.048 77.9118 370.989L79.1563 485.869C79.265 495.905 87.4907 503.953 97.5288 503.844L225.894 502.454C235.933 502.345 244.158 510.392 244.267 520.428L245.657 648.765C245.766 658.801 253.991 666.849 264.03 666.74L392.395 665.349C402.433 665.24 410.659 673.288 410.768 683.324L412.158 811.661C412.267 821.697 420.492 829.744 430.53 829.635L558.896 828.245C568.934 828.136 577.16 836.184 577.268 846.219L578.659 974.556C578.767 984.592 586.993 992.64 597.031 992.531L711.746 991.288C721.762 991.18 729.941 999.27 729.941 1009.29L729.941 1080.5M83.0687 847.03L84.5082 979.909C84.6169 989.945 92.8426 997.993 102.881 997.884L231.246 996.493C241.284 996.385 249.51 1004.43 249.619 1014.47L251.009 1142.8C251.118 1152.84 259.343 1160.89 269.382 1160.78L397.747 1159.39C407.785 1159.28 416.011 1167.33 416.12 1177.36L416.815 1241.53L417.51 1305.7C417.619 1315.74 425.844 1323.78 435.882 1323.68L564.248 1322.28C574.286 1322.18 582.512 1330.22 582.62 1340.26L584.011 1468.6C584.119 1478.63 592.345 1486.68 602.383 1486.57L735.293 1485.13" stroke="#C8F558" stroke-opacity="0.24"/>
</g>
<defs>
<filter id="filter0_f_50_1449" x="-1096.38" y="-1009.38" width="2193.77" height="2193.77" filterUnits="userSpaceOnUse" color-interpolation-filters="sRGB">
<feFlood flood-opacity="0" result="BackgroundImageFix"/>
<feBlend mode="normal" in="SourceGraphic" in2="BackgroundImageFix" result="shape"/>
<feGaussianBlur stdDeviation="277.692" result="effect1_foregroundBlur_50_1449"/>
</filter>
<filter id="filter1_f_50_1449" x="515.615" y="361.615" width="2193.77" height="2193.77" filterUnits="userSpaceOnUse" color-interpolation-filters="sRGB">
<feFlood flood-opacity="0" result="BackgroundImageFix"/>
<feBlend mode="normal" in="SourceGraphic" in2="BackgroundImageFix" result="shape"/>
<feGaussianBlur stdDeviation="277.692" result="effect1_foregroundBlur_50_1449"/>
</filter>
<linearGradient id="paint0_linear_50_1449" x1="-541" y1="87.5" x2="542" y2="87.5" gradientUnits="userSpaceOnUse">
<stop stop-color="#C8F558"/>
<stop offset="1" stop-color="#9EBF47"/>
</linearGradient>
<linearGradient id="paint1_linear_50_1449" x1="1071" y1="1458.5" x2="2154" y2="1458.5" gradientUnits="userSpaceOnUse">
<stop stop-color="#C8F558"/>
<stop offset="1" stop-color="#9EBF47"/>
</linearGradient>
<clipPath id="clip0_50_1449">
<rect width="1920" height="1080" fill="white"/>
</clipPath>
</defs>
</svg>
